<svg width="241" height="24" viewBox="0 0 241 24" fill="none" xmlns="http://www.w3.org/2000/svg">
<path d="M11.0818 3.12723C11.4292 2.32217 12.5708 2.32217 12.9182 3.12723L15.0982 8.17911C15.2453 8.52 15.5691 8.75132 15.9393 8.77993L21.53 9.21192C22.4269 9.28123 22.7833 10.4073 22.0896 10.9801L17.8852 14.4514C17.5886 14.6962 17.4588 15.0894 17.5512 15.4627L18.8451 20.6911C19.0579 21.5509 18.1304 22.2424 17.3671 21.7931L12.5073 18.9321C12.1942 18.7478 11.8058 18.7478 11.4927 18.9321L6.63294 21.7931C5.86964 22.2424 4.94211 21.5509 5.1549 20.6911L6.44884 15.4627C6.54123 15.0894 6.41136 14.6962 6.1148 14.4514L1.91041 10.9801C1.21665 10.4073 1.57306 9.28123 2.47004 9.21192L8.06069 8.77993C8.43086 8.75132 8.75471 8.52 8.90181 8.17911L11.0818 3.12723Z" fill="#04B90B"/>
<path d="M39.0818 3.12723C39.4292 2.32217 40.5708 2.32217 40.9182 3.12723L43.0982 8.17911C43.2453 8.52 43.5691 8.75132 43.9393 8.77993L49.53 9.21192C50.4269 9.28123 50.7833 10.4073 50.0896 10.9801L45.8852 14.4514C45.5886 14.6962 45.4588 15.0894 45.5512 15.4627L46.8451 20.6911C47.0579 21.5509 46.1304 22.2424 45.3671 21.7931L40.5073 18.9321C40.1942 18.7478 39.8058 18.7478 39.4927 18.9321L34.6329 21.7931C33.8696 22.2424 32.9421 21.5509 33.1549 20.6911L34.4488 15.4627C34.5412 15.0894 34.4114 14.6962 34.1148 14.4514L29.9104 10.9801C29.2167 10.4073 29.5731 9.28123 30.47 9.21192L36.0607 8.77993C36.4309 8.75132 36.7547 8.52 36.9018 8.17911L39.0818 3.12723Z" fill="#04B90B"/>
<path d="M67.0818 3.12723C67.4292 2.32217 68.5708 2.32217 68.9182 3.12723L71.0982 8.17911C71.2453 8.52 71.5691 8.75132 71.9393 8.77993L77.53 9.21192C78.4269 9.28123 78.7833 10.4073 78.0896 10.9801L73.8852 14.4514C73.5886 14.6962 73.4588 15.0894 73.5512 15.4627L74.8451 20.6911C75.0579 21.5509 74.1304 22.2424 73.3671 21.7931L68.5073 18.9321C68.1942 18.7478 67.8058 18.7478 67.4927 18.9321L62.6329 21.7931C61.8696 22.2424 60.9421 21.5509 61.1549 20.6911L62.4488 15.4627C62.5412 15.0894 62.4114 14.6962 62.1148 14.4514L57.9104 10.9801C57.2167 10.4073 57.5731 9.28123 58.47 9.21192L64.0607 8.77993C64.4309 8.75132 64.7547 8.52 64.9018 8.17911L67.0818 3.12723Z" fill="#04B90B"/>
<path d="M95.0818 3.12723C95.4292 2.32217 96.5708 2.32217 96.9182 3.12723L99.0982 8.17911C99.2453 8.52 99.5691 8.75132 99.9393 8.77993L105.53 9.21192C106.427 9.28123 106.783 10.4073 106.09 10.9801L101.885 14.4514C101.589 14.6962 101.459 15.0894 101.551 15.4627L102.845 20.6911C103.058 21.5509 102.13 22.2424 101.367 21.7931L96.5073 18.9321C96.1942 18.7478 95.8058 18.7478 95.4927 18.9321L90.6329 21.7931C89.8696 22.2424 88.9421 21.5509 89.1549 20.6911L90.4488 15.4627C90.5412 15.0894 90.4114 14.6962 90.1148 14.4514L85.9104 10.9801C85.2167 10.4073 85.5731 9.28123 86.47 9.21192L92.0607 8.77993C92.4309 8.75132 92.7547 8.52 92.9018 8.17911L95.0818 3.12723Z" fill="#04B90B"/>
<path d="M123.082 3.12723C123.429 2.32217 124.571 2.32217 124.918 3.12723L127.098 8.17911C127.245 8.52 127.569 8.75132 127.939 8.77993L133.53 9.21192C134.427 9.28123 134.783 10.4073 134.09 10.9801L129.885 14.4514C129.589 14.6962 129.459 15.0894 129.551 15.4627L130.845 20.6911C131.058 21.5509 130.13 22.2424 129.367 21.7931L124.507 18.9321C124.194 18.7478 123.806 18.7478 123.493 18.9321L118.633 21.7931C117.87 22.2424 116.942 21.5509 117.155 20.6911L118.449 15.4627C118.541 15.0894 118.411 14.6962 118.115 14.4514L113.91 10.9801C113.217 10.4073 113.573 9.28123 114.47 9.21192L120.061 8.77993C120.431 8.75132 120.755 8.52 120.902 8.17911L123.082 3.12723Z" fill="#04B90B"/>
<path d="M148.816 16.832C150.171 15.744 151.232 14.8533 152 14.16C152.768 13.456 153.413 12.7253 153.936 11.968C154.469 11.2 154.736 10.448 154.736 9.712C154.736 9.01867 154.565 8.47467 154.224 8.08C153.893 7.67467 153.355 7.472 152.608 7.472C151.883 7.472 151.317 7.70133 150.912 8.16C150.517 8.608 150.304 9.21067 150.272 9.968H148.864C148.907 8.77333 149.269 7.85067 149.952 7.2C150.635 6.54933 151.515 6.224 152.592 6.224C153.691 6.224 154.56 6.528 155.2 7.136C155.851 7.744 156.176 8.58133 156.176 9.648C156.176 10.5333 155.909 11.3973 155.376 12.24C154.853 13.072 154.256 13.808 153.584 14.448C152.912 15.0773 152.053 15.8133 151.008 16.656H156.512V17.872H148.816V16.832ZM157.811 7.76V6.432H160.819V18H159.347V7.76H157.811ZM162.968 15.424V14.32L168.584 6.544H170.328V14.16H171.928V15.424H170.328V18H168.888V15.424H162.968ZM168.952 8.064L164.648 14.16H168.952V8.064ZM183.76 18L181.104 13.44H179.344V18H177.888V6.848H181.488C182.331 6.848 183.04 6.992 183.616 7.28C184.203 7.568 184.64 7.95733 184.928 8.448C185.216 8.93867 185.36 9.49867 185.36 10.128C185.36 10.896 185.136 11.5733 184.688 12.16C184.251 12.7467 183.59 13.136 182.704 13.328L185.504 18H183.76ZM179.344 12.272H181.488C182.278 12.272 182.87 12.08 183.264 11.696C183.659 11.3013 183.856 10.7787 183.856 10.128C183.856 9.46667 183.659 8.95467 183.264 8.592C182.88 8.22933 182.288 8.048 181.488 8.048H179.344V12.272ZM195.623 13.28C195.623 13.5573 195.607 13.8507 195.575 14.16H188.567C188.62 15.024 188.913 15.7013 189.447 16.192C189.991 16.672 190.647 16.912 191.415 16.912C192.044 16.912 192.567 16.768 192.983 16.48C193.409 16.1813 193.708 15.7867 193.879 15.296H195.447C195.212 16.1387 194.743 16.8267 194.039 17.36C193.335 17.8827 192.46 18.144 191.415 18.144C190.583 18.144 189.836 17.9573 189.175 17.584C188.524 17.2107 188.012 16.6827 187.639 16C187.265 15.3067 187.079 14.5067 187.079 13.6C187.079 12.6933 187.26 11.8987 187.623 11.216C187.985 10.5333 188.492 10.0107 189.143 9.648C189.804 9.27467 190.561 9.088 191.415 9.088C192.247 9.088 192.983 9.26933 193.623 9.632C194.263 9.99467 194.753 10.496 195.095 11.136C195.447 11.7653 195.623 12.48 195.623 13.28ZM194.119 12.976C194.119 12.4213 193.996 11.9467 193.751 11.552C193.505 11.1467 193.169 10.8427 192.743 10.64C192.327 10.4267 191.863 10.32 191.351 10.32C190.615 10.32 189.985 10.5547 189.463 11.024C188.951 11.4933 188.657 12.144 188.583 12.976H194.119ZM200.809 16.656L203.529 9.232H205.081L201.641 18H199.945L196.505 9.232H198.073L200.809 16.656ZM207.265 7.808C206.988 7.808 206.753 7.712 206.561 7.52C206.369 7.328 206.273 7.09333 206.273 6.816C206.273 6.53867 206.369 6.304 206.561 6.112C206.753 5.92 206.988 5.824 207.265 5.824C207.532 5.824 207.756 5.92 207.937 6.112C208.129 6.304 208.225 6.53867 208.225 6.816C208.225 7.09333 208.129 7.328 207.937 7.52C207.756 7.712 207.532 7.808 207.265 7.808ZM207.969 9.232V18H206.513V9.232H207.969ZM218.451 13.28C218.451 13.5573 218.435 13.8507 218.403 14.16H211.395C211.448 15.024 211.741 15.7013 212.275 16.192C212.819 16.672 213.475 16.912 214.243 16.912C214.872 16.912 215.395 16.768 215.811 16.48C216.237 16.1813 216.536 15.7867 216.707 15.296H218.275C218.04 16.1387 217.571 16.8267 216.867 17.36C216.163 17.8827 215.288 18.144 214.243 18.144C213.411 18.144 212.664 17.9573 212.003 17.584C211.352 17.2107 210.84 16.6827 210.467 16C210.093 15.3067 209.907 14.5067 209.907 13.6C209.907 12.6933 210.088 11.8987 210.451 11.216C210.813 10.5333 211.32 10.0107 211.971 9.648C212.632 9.27467 213.389 9.088 214.243 9.088C215.075 9.088 215.811 9.26933 216.451 9.632C217.091 9.99467 217.581 10.496 217.923 11.136C218.275 11.7653 218.451 12.48 218.451 13.28ZM216.947 12.976C216.947 12.4213 216.824 11.9467 216.579 11.552C216.333 11.1467 215.997 10.8427 215.571 10.64C215.155 10.4267 214.691 10.32 214.179 10.32C213.443 10.32 212.813 10.5547 212.291 11.024C211.779 11.4933 211.485 12.144 211.411 12.976H216.947ZM232.053 9.232L229.317 18H227.813L225.701 11.04L223.589 18H222.085L219.333 9.232H220.821L222.837 16.592L225.013 9.232H226.501L228.629 16.608L230.613 9.232H232.053ZM236.602 18.144C235.93 18.144 235.327 18.032 234.794 17.808C234.26 17.5733 233.839 17.2533 233.53 16.848C233.22 16.432 233.05 15.9573 233.018 15.424H234.522C234.564 15.8613 234.767 16.2187 235.13 16.496C235.503 16.7733 235.988 16.912 236.586 16.912C237.14 16.912 237.578 16.7893 237.898 16.544C238.218 16.2987 238.378 15.9893 238.378 15.616C238.378 15.232 238.207 14.9493 237.866 14.768C237.524 14.576 236.996 14.3893 236.282 14.208C235.631 14.0373 235.098 13.8667 234.682 13.696C234.276 13.5147 233.924 13.2533 233.626 12.912C233.338 12.56 233.194 12.1013 233.194 11.536C233.194 11.088 233.327 10.6773 233.594 10.304C233.86 9.93067 234.239 9.63733 234.73 9.424C235.22 9.2 235.78 9.088 236.41 9.088C237.38 9.088 238.164 9.33333 238.762 9.824C239.359 10.3147 239.679 10.9867 239.722 11.84H238.266C238.234 11.3813 238.047 11.0133 237.706 10.736C237.375 10.4587 236.927 10.32 236.362 10.32C235.839 10.32 235.423 10.432 235.114 10.656C234.804 10.88 234.65 11.1733 234.65 11.536C234.65 11.824 234.74 12.064 234.922 12.256C235.114 12.4373 235.348 12.5867 235.626 12.704C235.914 12.8107 236.308 12.9333 236.81 13.072C237.439 13.2427 237.951 13.4133 238.346 13.584C238.74 13.744 239.076 13.9893 239.354 14.32C239.642 14.6507 239.791 15.0827 239.802 15.616C239.802 16.096 239.668 16.528 239.402 16.912C239.135 17.296 238.756 17.6 238.266 17.824C237.786 18.0373 237.231 18.144 236.602 18.144Z" fill="#353945"/>
</svg>
